<svg width="278" height="90" viewBox="0 0 278 90" fill="none" xmlns="http://www.w3.org/2000/svg">
<path d="M133.945 37.1624C133.945 34.0333 136.476 31.4952 139.605 31.4952C142.734 31.4952 145.272 34.0257 145.272 37.1624V37.6852C148.03 33.9575 151.833 31.1997 157.72 31.1997C167.032 31.1997 175.904 38.5034 175.904 51.8456V51.9972C175.904 65.3393 167.183 72.6431 157.72 72.6431C151.682 72.6431 147.954 69.8852 145.272 66.6804V78.6058C145.272 81.7348 142.742 84.273 139.605 84.273C136.476 84.273 133.945 81.7424 133.945 78.6058V37.1624ZM164.569 51.9896V51.838C164.569 45.2086 160.099 40.8067 154.803 40.8067C149.507 40.8067 145.113 45.201 145.113 51.838V51.9896C145.113 58.619 149.507 63.0209 154.803 63.0209C160.099 63.0209 164.569 58.7023 164.569 51.9896Z" fill="#2648A1"/>
<path d="M179.635 22.426C179.635 19.1453 182.393 17.1376 185.969 17.1376C189.545 17.1376 192.303 19.1529 192.303 22.426V22.5775C192.303 25.8581 189.545 27.9416 185.969 27.9416C182.393 27.9416 179.635 25.8581 179.635 22.5775V22.426ZM180.309 37.1774C180.309 34.0483 182.84 31.5102 185.976 31.5102C189.105 31.5102 191.636 34.0407 191.636 37.1774V66.6878C191.636 69.8168 189.105 72.355 185.976 72.355C182.847 72.355 180.309 69.8244 180.309 66.6878V37.1774Z" fill="#2648A1"/>
<path d="M197.796 37.1624C197.796 34.0333 200.327 31.4952 203.464 31.4952C206.593 31.4952 209.123 34.0257 209.123 37.1624V37.6852C211.881 33.9575 215.684 31.1997 221.571 31.1997C230.883 31.1997 239.755 38.5034 239.755 51.8456V51.9972C239.755 65.3393 231.034 72.6431 221.571 72.6431C215.533 72.6431 211.805 69.8852 209.123 66.6804V78.6058C209.123 81.7348 206.593 84.273 203.464 84.273C200.335 84.273 197.796 81.7424 197.796 78.6058V37.1624ZM228.428 51.9896V51.838C228.428 45.2086 223.958 40.8067 218.662 40.8067C213.374 40.8067 208.972 45.201 208.972 51.838V51.9896C208.972 58.619 213.366 63.0209 218.662 63.0209C223.95 63.0209 228.428 58.7023 228.428 51.9896Z" fill="#2648A1"/>
<path d="M241.262 60.4381V60.2866C241.262 51.5661 247.891 47.5429 257.362 47.5429C261.385 47.5429 264.294 48.2172 267.128 49.1795V48.5052C267.128 43.8077 264.218 41.2014 258.559 41.2014C255.43 41.2014 252.892 41.6484 250.732 42.3227C250.066 42.55 249.611 42.6182 249.096 42.6182C246.489 42.6182 244.398 40.6029 244.398 37.9966C244.398 35.9812 245.664 34.2689 247.452 33.6022C251.028 32.2612 254.907 31.5187 260.195 31.5187C266.378 31.5187 270.855 33.1552 273.681 35.9888C276.659 38.9664 278 43.3683 278 48.7325V66.916C278 69.9693 275.538 72.3559 272.484 72.3559C269.204 72.3559 267.044 70.0451 267.044 67.6585V67.5827C264.287 70.6361 260.483 72.6514 254.975 72.6514C247.444 72.659 241.262 68.3404 241.262 60.4381ZM267.264 57.8318V55.8165C265.325 54.9224 262.794 54.3239 260.036 54.3239C255.195 54.3239 252.21 56.2635 252.21 59.8396V59.9911C252.21 63.0444 254.74 64.8325 258.392 64.8325C263.688 64.8325 267.264 61.9307 267.264 57.8318Z" fill="#2648A1"/>
<path d="M17.2138 31.0484C17.2138 29.7453 16.1531 28.677 14.8423 28.677H2.37144C1.06071 28.6846 0 29.7453 0 31.0484C0 32.3516 1.06071 33.4199 2.37144 33.4199H14.8499C16.1531 33.4199 17.2138 32.3592 17.2138 31.0484ZM25.0327 12.9482H37.5036C38.8067 12.9482 39.875 11.8875 39.875 10.5768C39.875 9.26604 38.8143 8.20533 37.5036 8.20533H25.0327C23.7295 8.20533 22.6613 9.26604 22.6613 10.5768C22.6613 11.8875 23.7295 12.9482 25.0327 12.9482ZM17.9108 49.1562H10.1828C8.87963 49.1562 7.81135 50.2169 7.81135 51.5277C7.81135 52.8384 8.87206 53.8991 10.1828 53.8991H17.9032C19.2064 53.8991 20.2747 52.8384 20.2747 51.5277C20.2747 50.2169 19.214 49.1562 17.9108 49.1562ZM15.7136 69.6809H10.4555C9.15239 69.6809 8.0841 70.7416 8.0841 72.0524C8.0841 73.3631 9.14481 74.4238 10.4555 74.4238H15.7212C17.0244 74.4238 18.0926 73.3631 18.0926 72.0524C18.0926 70.7416 17.0244 69.6809 15.7136 69.6809ZM113.17 12.4254C104.608 4.40951 93.3195 0 81.3866 0C72.2342 0 63.4606 2.7048 56.0129 7.81893L55.6644 8.06138H44.1557C42.9056 8.06138 41.8979 9.07663 41.8979 10.3192C41.8979 11.5617 42.9132 12.577 44.1557 12.577H51.9292L45.1786 18.1533C43.0723 20.8429 41.2615 23.8583 39.8068 27.1314L39.4432 27.9421H22.5855C21.3354 27.9421 20.3277 28.9573 20.3277 30.1999C20.3277 31.45 21.3429 32.4577 22.5855 32.4577H42.4738L42.5041 32.4349L36.6474 37.6551C36.2686 40.0796 36.0792 42.4207 36.0792 44.7922C36.0792 45.0877 36.1019 45.3831 36.1171 45.6938C36.1322 45.9286 36.1474 46.1635 36.155 46.3984L36.208 47.8152H25.2221C23.972 47.8152 22.9643 48.8304 22.9643 50.073C22.9643 51.3155 23.9796 52.3308 25.2221 52.3308H41.8525L42.0192 52.1868L37.7081 56.8464C38.5719 59.9073 39.7993 62.8848 41.3752 65.7108L42.5041 67.7413H23.4265C22.1764 67.7413 21.1687 68.7566 21.1687 69.9991C21.1687 71.2493 22.1839 72.2569 23.4265 72.2569H51.4291L48.7698 75.8027L49.3532 76.3861C49.3911 76.424 49.4365 76.4695 49.4744 76.5073C49.5047 76.5376 49.5426 76.5679 49.5729 76.6058L49.7244 76.7574C58.2404 85.0991 69.7491 89.6828 82.1897 89.6828C91.7057 89.6828 100.002 87.4402 108.306 82.614C109.23 82.0609 109.738 81.2199 109.738 80.2501C109.738 78.7121 108.48 77.3635 107.048 77.3635C106.616 77.3635 105.965 77.4923 105.502 77.7802L105.457 77.8105C97.8351 82.1367 91.0996 83.9096 82.1897 83.9096C71.0674 83.9096 60.9073 79.8713 53.5733 72.5448C46.3756 65.3472 42.4056 55.5432 42.4056 44.9361C42.4056 34.4124 46.3605 24.5857 53.5506 17.2592C60.824 9.84185 70.7037 5.75813 81.379 5.75813C91.8876 5.75813 101.729 9.55395 109.094 16.4561C116.117 23.0325 120.148 31.8743 120.148 40.7236C120.095 44.9664 119.504 48.641 118.39 51.6565L118.36 51.7322C113.746 62.1954 99.6156 63.6046 97.9942 63.7334C97.1608 63.7864 96.3046 63.8091 95.4409 63.8091C94.0165 63.8091 92.5391 63.741 91.0541 63.6046C87.2432 63.2561 84.5005 62.5818 84.0535 62.4681C83.1973 62.3166 82.3563 62.1196 81.5608 61.8696C76.3861 60.2482 73.5904 56.8009 72.1508 54.2022C71.6129 53.2324 71.1735 52.2171 70.8401 51.1716C70.6961 50.7018 70.5749 50.2321 70.4688 49.7699L70.1052 48.1107H103.79C103.843 47.3303 103.881 46.5726 103.881 45.9135C103.881 34.5715 98.1457 21.3278 81.9699 21.3278C69.2793 21.3278 59.7027 31.4348 59.7027 44.8452V45.027C59.7027 47.5879 60.0436 50.0502 60.7179 52.3535C62.6272 58.8617 67.1125 63.8698 73.3479 66.4609L73.4085 66.4912C80.3031 69.7718 87.9402 70.2643 91.88 70.2643C93.4786 70.2643 94.4484 70.181 94.4636 70.181L94.5545 70.1734C106.343 69.9082 115.041 66.423 120.428 59.7785C123.815 55.5962 125.77 49.7093 126.08 42.7465C126.111 42.0646 126.126 41.3828 126.126 40.7236C126.141 30.4575 121.413 20.1459 113.17 12.4254ZM70.287 40.7842C71.5144 33.7078 75.886 29.4877 81.9775 29.4877C85.099 29.4877 87.819 30.6014 89.8419 32.7153C91.736 34.6927 92.9634 37.5036 93.4104 40.8372L93.615 42.3828H70.0143L70.287 40.7842Z" fill="url(#paint0_linear_2_146)"/>
<defs>
<linearGradient id="paint0_linear_2_146" x1="0" y1="44.8545" x2="126.14" y2="44.8545" gradientUnits="userSpaceOnUse">
<stop stop-color="#E7982F"/>
<stop offset="1" stop-color="#E8B743"/>
</linearGradient>
</defs>
</svg>
