<svg width="127" height="50" viewBox="0 0 127 50" fill="none" xmlns="http://www.w3.org/2000/svg">
<g id="Frame" clip-path="url(#clip0_405_56)">
<g id="Group">
<g id="logo-white">
<g id="Group_2">
<path id="Vector" d="M60.915 16.9033C60.915 15.4804 62.0658 14.3261 63.4888 14.3261C64.9117 14.3261 66.0659 15.4769 66.0659 16.9033V17.1411C67.3201 15.4459 69.0497 14.1918 71.7268 14.1918C75.9612 14.1918 79.9958 17.5132 79.9958 23.5806V23.6495C79.9958 29.7169 76.0301 33.0382 71.7268 33.0382C68.9808 33.0382 67.2856 31.7841 66.0659 30.3267V35.7498C66.0659 37.1728 64.9152 38.327 63.4888 38.327C62.0658 38.327 60.915 37.1762 60.915 35.7498V16.9033ZM74.8414 23.646V23.5771C74.8414 20.5624 72.8086 18.5606 70.4003 18.5606C67.9919 18.5606 65.9936 20.5589 65.9936 23.5771V23.646C65.9936 26.6608 67.9919 28.6626 70.4003 28.6626C72.8086 28.6626 74.8414 26.6987 74.8414 23.646Z" fill="#F9FAFC"/>
<path id="Vector_2" d="M81.6875 10.1951C81.6875 8.7032 82.9416 7.79016 84.5678 7.79016C86.1941 7.79016 87.4482 8.70664 87.4482 10.1951V10.264C87.4482 11.7558 86.1941 12.7033 84.5678 12.7033C82.9416 12.7033 81.6875 11.7558 81.6875 10.264V10.1951ZM81.9941 16.9033C81.9941 15.4803 83.1449 14.3261 84.5713 14.3261C85.9943 14.3261 87.145 15.4769 87.145 16.9033V30.3232C87.145 31.7462 85.9943 32.9004 84.5713 32.9004C83.1483 32.9004 81.9941 31.7496 81.9941 30.3232V16.9033Z" fill="#F9FAFC"/>
<path id="Vector_3" d="M89.9565 16.9033C89.9565 15.4804 91.1073 14.3261 92.5337 14.3261C93.9566 14.3261 95.1074 15.4769 95.1074 16.9033V17.1411C96.3615 15.4459 98.0911 14.1918 100.768 14.1918C105.003 14.1918 109.037 17.5132 109.037 23.5806V23.6495C109.037 29.7169 105.072 33.0382 100.768 33.0382C98.0222 33.0382 96.3271 31.7841 95.1074 30.3267V35.7498C95.1074 37.1728 93.9566 38.327 92.5337 38.327C91.1107 38.327 89.9565 37.1762 89.9565 35.7498V16.9033ZM103.886 23.646V23.5771C103.886 20.5624 101.854 18.5606 99.4452 18.5606C97.0403 18.5606 95.0385 20.5589 95.0385 23.5771V23.646C95.0385 26.6608 97.0368 28.6626 99.4452 28.6626C101.85 28.6626 103.886 26.6987 103.886 23.646Z" fill="#F9FAFC"/>
<path id="Vector_4" d="M109.716 27.4774V27.4084C109.716 23.4428 112.731 21.6132 117.038 21.6132C118.867 21.6132 120.19 21.9199 121.479 22.3575V22.0508C121.479 19.9146 120.156 18.7294 117.582 18.7294C116.159 18.7294 115.005 18.9327 114.023 19.2393C113.72 19.3427 113.513 19.3737 113.279 19.3737C112.093 19.3737 111.143 18.4572 111.143 17.272C111.143 16.3555 111.718 15.5769 112.531 15.2737C114.157 14.6638 115.921 14.3262 118.326 14.3262C121.138 14.3262 123.174 15.0704 124.459 16.359C125.813 17.713 126.423 19.7148 126.423 22.1542V30.4232C126.423 31.8117 125.303 32.897 123.915 32.897C122.423 32.897 121.441 31.8462 121.441 30.7608V30.7264C120.187 32.1149 118.457 33.0314 115.952 33.0314C112.528 33.0348 109.716 31.0709 109.716 27.4774ZM121.541 26.2921V25.3756C120.659 24.9691 119.508 24.6969 118.254 24.6969C116.052 24.6969 114.695 25.5789 114.695 27.2052V27.2741C114.695 28.6626 115.846 29.4757 117.506 29.4757C119.915 29.4757 121.541 28.1561 121.541 26.2921Z" fill="#F9FAFC"/>
</g>
<path id="Vector_5" d="M7.828 14.1194C7.828 13.5267 7.34564 13.0409 6.74959 13.0409H1.07842C0.482359 13.0444 0 13.5267 0 14.1194C0 14.712 0.482359 15.1978 1.07842 15.1978H6.75303C7.34564 15.1978 7.828 14.7154 7.828 14.1194ZM11.3837 5.88823H17.0549C17.6475 5.88823 18.1333 5.40587 18.1333 4.80981C18.1333 4.21375 17.6509 3.7314 17.0549 3.7314H11.3837C10.7911 3.7314 10.3053 4.21375 10.3053 4.80981C10.3053 5.40587 10.7911 5.88823 11.3837 5.88823ZM8.14498 22.3539H4.63065C4.03804 22.3539 3.55223 22.8363 3.55223 23.4323C3.55223 24.0284 4.03459 24.5108 4.63065 24.5108H8.14154C8.73415 24.5108 9.21996 24.0284 9.21996 23.4323C9.21996 22.8363 8.7376 22.3539 8.14498 22.3539ZM7.14581 31.6876H4.75469C4.16207 31.6876 3.67627 32.1699 3.67627 32.766C3.67627 33.362 4.15863 33.8444 4.75469 33.8444H7.14926C7.74187 33.8444 8.22767 33.362 8.22767 32.766C8.22767 32.1699 7.74187 31.6876 7.14581 31.6876ZM51.4643 5.6505C47.571 2.00524 42.4373 0 37.0107 0C32.8487 0 28.8589 1.23002 25.472 3.55568L25.3135 3.66593H20.0799C19.5114 3.66593 19.0532 4.12762 19.0532 4.69267C19.0532 5.25772 19.5149 5.71941 20.0799 5.71941H23.6149L20.5451 8.25524C19.5872 9.47836 18.7638 10.8496 18.1023 12.3381L17.9369 12.7067H10.2708C9.70232 12.7067 9.24407 13.1684 9.24407 13.7335C9.24407 14.302 9.70576 14.7602 10.2708 14.7602H19.3151L19.3288 14.7499L16.6655 17.1238C16.4932 18.2263 16.4071 19.2909 16.4071 20.3694C16.4071 20.5037 16.4174 20.6381 16.4243 20.7794C16.4312 20.8862 16.4381 20.993 16.4416 21.0998L16.4657 21.7441H11.4698C10.9013 21.7441 10.4431 22.2058 10.4431 22.7708C10.4431 23.3359 10.9048 23.7975 11.4698 23.7975H19.0325L19.1083 23.7321L17.1479 25.851C17.5407 27.243 18.0988 28.597 18.8155 29.8822L19.3288 30.8055H10.6533C10.0848 30.8055 9.62652 31.2672 9.62652 31.8323C9.62652 32.4008 10.0882 32.859 10.6533 32.859H23.3875L22.1782 34.4715L22.4435 34.7368C22.4607 34.754 22.4814 34.7747 22.4986 34.7919C22.5124 34.8057 22.5296 34.8195 22.5434 34.8367L22.6123 34.9056C26.485 38.699 31.7186 40.7835 37.376 40.7835C41.7034 40.7835 45.4762 39.7636 49.2523 37.5689C49.6727 37.3174 49.9035 36.935 49.9035 36.4939C49.9035 35.7945 49.3316 35.1812 48.6804 35.1812C48.484 35.1812 48.1877 35.2398 47.9775 35.3707L47.9569 35.3845C44.4908 37.3518 41.4278 38.1581 37.376 38.1581C32.3181 38.1581 27.6978 36.3217 24.3626 32.9899C21.0894 29.7168 19.284 25.2584 19.284 20.4348C19.284 15.6491 21.0826 11.1804 24.3523 7.84868C27.6599 4.47561 32.1527 2.61852 37.0073 2.61852C41.7861 2.61852 46.2617 4.34468 49.6107 7.48346C52.8046 10.4741 54.6375 14.4949 54.6375 18.5192C54.6134 20.4486 54.3447 22.1196 53.8382 23.4909L53.8244 23.5254C51.7262 28.2835 45.3004 28.9243 44.5631 28.9829C44.1841 29.007 43.7948 29.0174 43.402 29.0174C42.7543 29.0174 42.0824 28.9864 41.4071 28.9243C39.6741 28.7659 38.4268 28.4592 38.2235 28.4075C37.8342 28.3386 37.4518 28.249 37.09 28.1353C34.7368 27.398 33.4654 25.8303 32.8108 24.6486C32.5662 24.2076 32.3663 23.7459 32.2147 23.2704C32.1493 23.0568 32.0941 22.8432 32.0459 22.633L31.8805 21.8784H47.1989C47.223 21.5236 47.2402 21.179 47.2402 20.8793C47.2402 15.7215 44.632 9.69887 37.276 9.69887C31.505 9.69887 27.1499 14.2951 27.1499 20.3935V20.4762C27.1499 21.6407 27.305 22.7605 27.6116 23.8079C28.4799 26.7675 30.5196 29.0449 33.3552 30.2233L33.3827 30.237C36.5181 31.7289 39.991 31.9529 41.7827 31.9529C42.5096 31.9529 42.9507 31.915 42.9576 31.915L42.9989 31.9115C48.36 31.7909 52.3153 30.206 54.765 27.1844C56.3051 25.2825 57.194 22.6054 57.3353 19.4391C57.3491 19.129 57.356 18.8189 57.356 18.5192C57.3629 13.8506 55.2129 9.16138 51.4643 5.6505ZM31.9632 18.5467C32.5214 15.3287 34.5094 13.4096 37.2795 13.4096C38.699 13.4096 39.9359 13.9161 40.8558 14.8773C41.7172 15.7766 42.2754 17.0549 42.4786 18.5708L42.5717 19.2737H31.8392L31.9632 18.5467Z" fill="url(#paint0_linear_405_56)"/>
</g>
</g>
</g>
<defs>
<linearGradient id="paint0_linear_405_56" x1="0" y1="20.3977" x2="57.3625" y2="20.3977" gradientUnits="userSpaceOnUse">
<stop stop-color="#E7982F"/>
<stop offset="1" stop-color="#E8B743"/>
</linearGradient>
<clipPath id="clip0_405_56">
<rect width="126.964" height="50" fill="white"/>
</clipPath>
</defs>
</svg>
