<svg width="302" height="50" viewBox="0 0 302 50" fill="none" xmlns="http://www.w3.org/2000/svg">
<path d="M23.7589 30.5604L42.9815 49.457L48.8427 32.4501L15.944 0L0 49.3049L17.2465 49.457L23.7589 30.5604Z" fill="#0B5ABD"/>
<path d="M66.6506 18.8971L47.4279 0.000488281L41.5668 17.0075L74.4654 49.4575L90.4094 0.152572L73.1629 0.000488281L66.6506 18.8971Z" fill="#FDB32F"/>
<path d="M106.937 23.8271L116.055 0.586487H120.748L129.865 23.8271H124.812L122.724 17.9409H113.786L111.698 23.8271H106.937ZM115.044 14.3137H121.422L118.255 5.27808L115.044 14.3137Z" fill="#FEFEFE"/>
<path d="M132.38 29.4964L134.289 26.4555C135.569 27.3026 137.208 27.7153 139.23 27.7153C140.33 27.7153 141.251 27.3894 142.014 26.7161C142.755 26.0645 143.137 25.1523 143.137 24.0228V22.2418C142.553 22.6762 141.924 23.0454 141.251 23.3495C140.577 23.6536 139.656 23.8056 138.533 23.8056C136.917 23.8056 135.547 23.4582 134.379 22.7848C133.211 22.0898 132.335 21.1558 131.707 19.9612C131.1 18.7666 130.786 17.3981 130.786 15.856C130.786 14.227 131.168 12.75 131.954 11.4251C132.74 10.1002 133.84 9.05758 135.277 8.27565C136.714 7.49373 138.399 7.10278 140.33 7.10278C141.79 7.10278 143.159 7.21141 144.395 7.45033C145.652 7.68925 146.64 7.92815 147.381 8.18879V24.088C147.381 25.6085 147.022 26.8899 146.326 27.9542C145.63 29.0185 144.664 29.8222 143.451 30.3869C142.239 30.9299 140.846 31.2122 139.297 31.2122C137.545 31.2122 136.153 31.0602 135.12 30.7561C134.087 30.452 133.166 30.0394 132.38 29.4964ZM143.115 16.8769V11.0124C142.778 10.9038 142.441 10.8169 142.059 10.7517C141.7 10.6866 141.138 10.6649 140.375 10.6649C139.23 10.6649 138.264 10.9039 137.478 11.3817C136.692 11.8596 136.108 12.4894 135.704 13.2496C135.3 14.0098 135.098 14.8569 135.098 15.7691C135.098 17.0289 135.412 18.0715 136.063 18.9403C136.714 19.8091 137.747 20.2218 139.207 20.2218C141.79 20.2218 143.115 19.1141 143.115 16.8769Z" fill="#FEFEFE"/>
<path d="M165.122 18.9401L167.435 21.4596C167.368 21.5248 167.165 21.7203 166.851 22.0244C166.537 22.3284 166.065 22.6759 165.436 23.0452C164.83 23.4144 164.044 23.7185 163.101 23.9792C162.158 24.2398 161.012 24.3701 159.687 24.3701C157.891 24.3701 156.319 24.0008 154.994 23.2406C153.669 22.4804 152.614 21.4378 151.873 20.0912C151.132 18.7445 150.75 17.2024 150.75 15.4648C150.75 13.8575 151.109 12.424 151.85 11.1208C152.591 9.83928 153.602 8.81841 154.882 8.0582C156.162 7.29799 157.644 6.92881 159.328 6.92881C160.9 6.92881 162.203 7.18939 163.258 7.73239C164.313 8.2754 165.167 8.99215 165.818 9.88268C166.469 10.7732 166.941 11.7724 167.233 12.9019C167.525 14.0313 167.659 15.1607 167.659 16.3119V16.8984H155.039C155.039 17.6803 155.264 18.3753 155.735 18.9618C156.207 19.5482 156.791 20.0261 157.509 20.3519C158.228 20.6994 158.969 20.8514 159.71 20.8514C160.81 20.8514 161.731 20.7211 162.45 20.4822C163.168 20.2433 163.752 19.9609 164.179 19.6568C164.628 19.3744 164.92 19.1355 165.122 18.9401ZM153.445 4.99563L157.195 0.043457H161.192L164.942 4.99563H161.192L159.171 2.34582L157.195 4.99563H153.445ZM154.994 13.9227H163.28C163.28 13.3579 163.123 12.8149 162.831 12.2719C162.539 11.7289 162.09 11.2728 161.506 10.9036C160.923 10.5343 160.204 10.3606 159.306 10.3606C158.363 10.3606 157.577 10.5343 156.948 10.9036C156.319 11.2728 155.825 11.7072 155.488 12.2719C155.174 12.8149 154.994 13.3579 154.994 13.9227Z" fill="#FEFEFE"/>
<path d="M170.916 23.827V7.49337H174.98L175.092 9.33959C175.519 8.88347 176.148 8.38397 176.956 7.8844C177.765 7.38484 178.843 7.14594 180.168 7.14594C182.256 7.14594 183.85 7.75408 184.973 8.97041C186.096 10.1867 186.658 11.8374 186.658 13.9008V23.827H182.413V13.9226C182.413 12.9017 182.121 12.0981 181.537 11.5116C180.954 10.9252 180.19 10.6428 179.247 10.6428C178.079 10.6428 177.091 11.0556 176.328 11.9026C175.564 12.7497 175.182 13.7706 175.182 14.9652V23.827H170.916Z" fill="#FEFEFE"/>
<path d="M203.141 19.0051L205.656 21.6551C204.87 22.4587 203.927 23.1103 202.826 23.6099C201.726 24.0877 200.468 24.3483 199.053 24.3483C197.122 24.3483 195.483 23.9791 194.136 23.2406C192.788 22.5021 191.755 21.4813 191.037 20.1781C190.318 18.8749 189.981 17.3544 189.981 15.6385C189.981 14.0529 190.363 12.5978 191.126 11.2728C191.89 9.9479 192.968 8.88358 194.315 8.10166C195.663 7.31973 197.257 6.90704 199.053 6.90704C200.423 6.90704 201.681 7.14592 202.804 7.62377C203.927 8.10161 204.892 8.7532 205.678 9.55685L202.983 12.2068C202.534 11.6638 201.973 11.2511 201.299 10.947C200.648 10.6429 199.884 10.4909 199.053 10.4909C197.976 10.4909 197.077 10.7298 196.359 11.2293C195.64 11.7072 195.124 12.3588 194.764 13.119C194.405 13.901 194.248 14.7263 194.248 15.6169C194.248 16.4205 194.427 17.2241 194.764 18.0277C195.101 18.8097 195.64 19.4613 196.359 19.9826C197.077 20.5038 197.953 20.7428 199.053 20.7428C199.884 20.7428 200.67 20.5908 201.366 20.265C202.085 19.9609 202.669 19.5482 203.141 19.0051Z" fill="#FEFEFE"/>
<path d="M208.53 4.90879V0.586487H213.066V4.90879H208.53ZM208.687 23.8271V7.49348H212.931V23.8271H208.687Z" fill="#FEFEFE"/>
<path d="M227.393 23.8271L227.281 22.2849C226.832 22.8279 226.113 23.3058 225.17 23.7185C224.227 24.1312 223.172 24.3484 222.049 24.3484C221.128 24.3484 220.23 24.1529 219.332 23.7836C218.433 23.4144 217.692 22.8279 217.108 22.046C216.524 21.2641 216.233 20.265 216.233 19.0486C216.233 17.1807 216.906 15.7472 218.276 14.7263C219.646 13.7055 221.442 13.1842 223.643 13.1842C224.047 13.1842 224.541 13.2059 225.103 13.2277C225.664 13.2494 226.383 13.2928 227.281 13.3363V12.9452C227.281 12.1416 226.944 11.49 226.271 11.0339C225.597 10.5778 224.721 10.3388 223.643 10.3388C222.453 10.3388 221.487 10.4909 220.769 10.795C220.05 11.099 219.421 11.4248 218.86 11.7724L216.906 8.99223C217.355 8.66642 217.894 8.34053 218.523 8.03645C219.152 7.73237 219.915 7.47181 220.836 7.25461C221.757 7.03741 222.88 6.95044 224.227 6.95044C226.383 6.95044 228.112 7.49347 229.414 8.6012C230.717 9.70893 231.368 11.1208 231.368 12.8801V23.8488H227.393V23.8271ZM227.281 18.0278V16.4205C226.72 16.377 226.136 16.3336 225.485 16.3119C224.833 16.2902 224.339 16.2685 224.002 16.2685C222.633 16.2685 221.667 16.5291 221.128 17.0503C220.567 17.5716 220.297 18.1799 220.297 18.8532C220.297 19.5482 220.544 20.0912 221.061 20.4822C221.577 20.8732 222.341 21.0686 223.351 21.0686C224.025 21.0686 224.654 20.9383 225.238 20.6559C225.821 20.3736 226.315 20.0043 226.697 19.5482C227.079 19.1138 227.281 18.5925 227.281 18.0278Z" fill="#FEFEFE"/>
<path d="M240.149 23.8271L233.906 0.586487H238.869L242.798 17.9844L247.447 1.25983H251.556L256.25 17.9844L260.135 0.586487H264.895L258.585 23.8271H253.824L249.356 8.44925L244.819 23.8271H240.149Z" fill="#FEFEFE"/>
<path d="M279.313 18.9399L281.626 21.4595C281.558 21.5246 281.356 21.7201 281.042 22.0242C280.728 22.3283 280.256 22.6757 279.627 23.045C279.021 23.4142 278.235 23.7184 277.292 23.979C276.349 24.2397 275.203 24.3699 273.878 24.3699C272.082 24.3699 270.51 24.0007 269.185 23.2405C267.86 22.4802 266.805 21.4377 266.063 20.091C265.322 18.7444 264.941 17.2023 264.941 15.4647C264.941 13.8574 265.3 12.4238 266.041 11.1206C266.782 9.83912 267.793 8.81825 269.073 8.05804C270.353 7.29783 271.835 6.92865 273.519 6.92865C275.091 6.92865 276.393 7.18923 277.449 7.73223C278.504 8.27524 279.358 8.99199 280.009 9.88252C280.66 10.773 281.132 11.7723 281.424 12.9017C281.716 14.0094 281.85 15.1606 281.85 16.3117V16.8982H269.23C269.23 17.6801 269.454 18.3752 269.926 18.9616C270.398 19.5481 270.981 20.0259 271.7 20.3517C272.419 20.6992 273.16 20.8512 273.901 20.8512C275.001 20.8512 275.922 20.721 276.64 20.482C277.359 20.2431 277.943 19.9607 278.37 19.6566C278.796 19.3743 279.111 19.1354 279.313 18.9399ZM269.185 13.9225H277.471C277.471 13.3578 277.314 12.8147 277.022 12.2717C276.73 11.7287 276.281 11.2727 275.697 10.9034C275.113 10.5342 274.395 10.3604 273.497 10.3604C272.553 10.3604 271.767 10.5342 271.139 10.9034C270.51 11.2727 270.016 11.707 269.679 12.2717C269.342 12.8147 269.185 13.3578 269.185 13.9225Z" fill="#FEFEFE"/>
<path d="M285.106 23.3059V0.586487H289.351V8.60123C289.643 8.31887 290.204 8.01482 291.035 7.6673C291.866 7.31978 292.831 7.14604 293.977 7.14604C295.616 7.14604 297.008 7.51522 298.154 8.27542C299.299 9.03563 300.197 10.0347 300.803 11.2945C301.41 12.5543 301.724 13.9444 301.724 15.4866C301.724 17.1156 301.342 18.5926 300.556 19.9392C299.77 21.2859 298.67 22.3719 297.255 23.1755C295.841 23.9792 294.134 24.3919 292.18 24.3919C290.721 24.3919 289.373 24.2833 288.116 24.0443C286.881 23.8054 285.87 23.5448 285.106 23.3059ZM289.351 14.3137V20.4822C289.688 20.5691 290.024 20.656 290.406 20.7212C290.788 20.7863 291.327 20.8298 292.09 20.8298C293.236 20.8298 294.201 20.5908 294.987 20.0912C295.773 19.5916 296.357 18.94 296.761 18.1364C297.166 17.3327 297.368 16.4857 297.368 15.5734C297.368 14.7264 297.233 13.9444 296.941 13.206C296.649 12.4675 296.2 11.8592 295.616 11.4031C295.01 10.947 294.224 10.7299 293.281 10.7299C292.001 10.7299 291.035 11.0557 290.361 11.6855C289.688 12.3154 289.351 13.1843 289.351 14.3137Z" fill="#FEFEFE"/>
<path d="M106.601 49.6963V37.0768H114.82V38.6841H108.487V42.3548H113.27V43.9838H108.487V48.0673H115.291V49.6963H106.601V49.6963Z" fill="#FEFEFE"/>
<path d="M116.594 48.6107L117.672 47.4812C118.008 47.807 118.39 48.0459 118.839 48.2414C119.288 48.4369 119.827 48.5238 120.434 48.5238C121.018 48.5238 121.512 48.4369 121.893 48.2414C122.275 48.0676 122.477 47.7635 122.477 47.3726C122.477 47.0902 122.41 46.873 122.253 46.721C122.095 46.5472 121.826 46.4169 121.444 46.2866C121.062 46.1562 120.546 46.0042 119.872 45.8521C119.401 45.7435 118.952 45.5915 118.502 45.396C118.053 45.2005 117.694 44.9399 117.402 44.5924C117.11 44.2449 116.975 43.7887 116.975 43.2457C116.975 42.681 117.155 42.2031 117.492 41.8122C117.829 41.4212 118.278 41.1172 118.839 40.9217C119.378 40.7262 119.962 40.6176 120.568 40.6176C121.332 40.6176 122.006 40.7262 122.567 40.9217C123.128 41.1172 123.6 41.3995 124.004 41.747L123.039 42.9199C122.769 42.681 122.432 42.4856 122.006 42.3118C121.601 42.138 121.107 42.0729 120.568 42.0729C120.007 42.0729 119.558 42.1598 119.221 42.3335C118.884 42.5073 118.705 42.7897 118.705 43.2023C118.705 43.5716 118.929 43.8539 119.401 44.0494C119.85 44.2232 120.434 44.3969 121.152 44.5707C121.736 44.701 122.253 44.8747 122.702 45.0702C123.173 45.2874 123.533 45.5698 123.825 45.9174C124.094 46.2649 124.251 46.721 124.251 47.3074C124.251 47.8939 124.072 48.3717 123.712 48.7844C123.353 49.1753 122.881 49.4795 122.32 49.6967C121.736 49.9139 121.13 50.0007 120.456 50.0007C118.749 49.9573 117.447 49.5229 116.594 48.6107Z" fill="#FEFEFE"/>
<path d="M133.144 47.3942L134.222 48.502C133.818 48.9364 133.324 49.3056 132.717 49.5663C132.111 49.8269 131.437 49.9789 130.651 49.9789C129.663 49.9789 128.832 49.7835 128.114 49.3708C127.395 48.9581 126.856 48.4151 126.452 47.72C126.07 47.025 125.868 46.2213 125.868 45.3091C125.868 44.4403 126.07 43.6584 126.474 42.9633C126.879 42.2466 127.44 41.6818 128.159 41.2691C128.877 40.8564 129.708 40.6392 130.629 40.6392C131.392 40.6392 132.066 40.7696 132.672 41.0302C133.256 41.2909 133.773 41.6601 134.177 42.1163L133.032 43.2023C132.762 42.8765 132.425 42.6158 132.044 42.4203C131.662 42.2248 131.19 42.1379 130.651 42.1379C130.022 42.1379 129.484 42.2899 129.034 42.5723C128.585 42.8764 128.248 43.2674 128.001 43.7453C127.777 44.2231 127.642 44.7443 127.642 45.3091C127.642 45.8521 127.754 46.3734 128.001 46.8512C128.248 47.3291 128.585 47.7417 129.034 48.0241C129.484 48.3282 130.022 48.4802 130.629 48.4802C131.168 48.4802 131.639 48.3934 132.066 48.1762C132.515 47.9807 132.874 47.72 133.144 47.3942Z" fill="#FEFEFE"/>
<path d="M139.791 49.9573C138.87 49.9573 138.039 49.7401 137.298 49.3274C136.557 48.9147 135.996 48.3283 135.592 47.6332C135.188 46.9165 134.985 46.1345 134.985 45.2874C134.985 44.4186 135.188 43.6367 135.592 42.9417C135.996 42.2249 136.58 41.6602 137.298 41.2475C138.039 40.8348 138.848 40.6176 139.791 40.6176C140.712 40.6176 141.543 40.8348 142.261 41.2475C142.98 41.6602 143.564 42.2249 143.968 42.9417C144.395 43.6584 144.597 44.4403 144.597 45.2874C144.597 46.1345 144.395 46.9165 143.968 47.6332C143.541 48.35 142.98 48.9147 142.261 49.3274C141.543 49.7401 140.734 49.9573 139.791 49.9573ZM139.791 48.4803C140.42 48.4803 140.981 48.3283 141.43 48.0242C141.88 47.7201 142.216 47.3074 142.463 46.8296C142.71 46.33 142.823 45.8304 142.823 45.2874C142.823 44.7661 142.71 44.2449 142.463 43.7454C142.216 43.2458 141.88 42.8548 141.408 42.5507C140.959 42.2467 140.42 42.0946 139.791 42.0946C139.162 42.0946 138.623 42.2467 138.174 42.5507C137.725 42.8548 137.366 43.2675 137.119 43.7454C136.872 44.2232 136.759 44.7444 136.759 45.2874C136.759 45.8087 136.894 46.33 137.141 46.8078C137.388 47.2857 137.748 47.6983 138.197 48.0024C138.623 48.3282 139.162 48.4803 139.791 48.4803Z" fill="#FEFEFE"/>
<path d="M146.595 49.6966V37.0771H148.347V49.6966H146.595Z" fill="#FEFEFE"/>
<path d="M156.499 49.6967L156.454 48.6324C156.117 49.0668 155.69 49.3926 155.106 49.6098C154.545 49.827 153.961 49.9356 153.4 49.9356C152.906 49.9356 152.412 49.8487 151.918 49.6749C151.423 49.5012 151.019 49.2188 150.705 48.8061C150.39 48.3934 150.233 47.8722 150.233 47.1988C150.233 46.2432 150.57 45.5047 151.266 44.9182C151.962 44.3535 152.951 44.0712 154.231 44.0712C154.522 44.0712 154.814 44.0711 155.129 44.0928C155.443 44.1145 155.713 44.1363 155.96 44.158C156.207 44.1797 156.364 44.2014 156.454 44.2014V43.8756C156.454 43.224 156.252 42.7461 155.847 42.4638C155.443 42.1814 154.882 42.0294 154.163 42.0294C153.489 42.0294 152.951 42.1163 152.524 42.3118C152.12 42.4856 151.76 42.6811 151.491 42.8765L150.66 41.7253C150.997 41.4647 151.446 41.2258 152.007 40.9868C152.591 40.7479 153.355 40.6176 154.343 40.6176C155.511 40.6176 156.431 40.9 157.105 41.443C157.779 41.986 158.115 42.7679 158.115 43.7887V48.9147C158.115 49.0016 158.115 49.1102 158.115 49.2405C158.115 49.3708 158.115 49.5229 158.138 49.6967H156.499V49.6967ZM156.431 46.5255V45.5263C156.364 45.5046 156.207 45.4829 155.982 45.4612C155.758 45.4395 155.488 45.4177 155.196 45.396C154.904 45.3743 154.612 45.3744 154.343 45.3744C153.692 45.3744 153.198 45.4612 152.838 45.6567C152.501 45.8304 152.254 46.0694 152.142 46.33C152.007 46.5907 151.962 46.873 151.962 47.1336C151.962 47.6115 152.142 47.959 152.479 48.2196C152.816 48.4803 153.287 48.5889 153.894 48.5889C154.343 48.5889 154.769 48.5021 155.151 48.2849C155.533 48.0894 155.847 47.8287 156.094 47.5246C156.319 47.2206 156.431 46.8947 156.431 46.5255Z" fill="#FEFEFE"/>
<path d="M162.292 49.6968H160.541V41.7472C160.541 41.6603 160.541 41.5517 160.541 41.4431C160.541 41.3345 160.541 41.1391 160.518 40.9001H162.203L162.27 42.3119C162.405 42.1165 162.607 41.8992 162.876 41.6386C163.123 41.3997 163.46 41.1825 163.842 41.0087C164.224 40.835 164.695 40.748 165.257 40.748C165.459 40.748 165.638 40.7698 165.796 40.7915C165.953 40.8132 166.11 40.8567 166.245 40.9001L165.863 42.4857C165.638 42.3988 165.324 42.3553 164.965 42.3553C164.471 42.3553 164.022 42.4857 163.617 42.7246C163.213 42.9635 162.899 43.2893 162.674 43.702C162.45 44.1147 162.315 44.5491 162.315 45.0487V49.6968H162.292Z" fill="#FEFEFE"/>
</svg>
